<?xml version="1.0" encoding="utf-8"?><svg xmlns="http://www.w3.org/2000/svg" xmlns:xlink="http://www.w3.org/1999/xlink" width="1920" height="969" preserveAspectRatio="xMidYMid" viewBox="0 0 1920 969" style="z-index:1;margin-right:-2px;display:block;background-repeat-y:initial;background-repeat-x:initial;background-color:rgb(241, 242, 243);animation-play-state:paused" ><g transform="" style="animation-play-state:paused" ><linearGradient id="lg-0.42710765832924924" x1="0" x2="1" y1="0" y2="0" style="animation-play-state:paused" ><stop stop-color="#30bced" offset="0" style="animation-play-state:paused" ></stop>

  
<stop stop-color="#ef476f" offset="1" style="animation-play-state:paused" ></stop></linearGradient>
<path fill="url(#lg-0.42710765832924924)" opacity="0.4" d="M 0 0 L 0 803.445 Q 160 770.522 320 746.367 T 640 446.874 T 960 332.181 T 1280 133.704 T 1600 -83.5212 T 1920 -303.225 L 1920 0 Z" style="opacity:0.4;animation-play-state:paused" ></path>
<path fill="url(#lg-0.42710765832924924)" opacity="0.4" d="M 0 0 L 0 868.902 Q 160 658.084 320 629.083 T 640 491.742 T 960 327.4 T 1280 127.311 T 1600 -127.699 T 1920 -276.41 L 1920 0 Z" style="opacity:0.4;animation-play-state:paused" ></path>
<path fill="url(#lg-0.42710765832924924)" opacity="0.4" d="M 0 0 L 0 823.61 Q 160 686.029 320 670.2 T 640 502.832 T 960 223.921 T 1280 65.5733 T 1600 -51.5148 T 1920 -283.607 L 1920 0 Z" style="opacity:0.4;animation-play-state:paused" ></path>
<path fill="url(#lg-0.42710765832924924)" opacity="0.4" d="M 0 0 L 0 848.622 Q 160 645.206 320 604.94 T 640 547.004 T 960 385.837 T 1280 85.7818 T 1600 -68.206 T 1920 -264.687 L 1920 0 Z" style="opacity:0.4;animation-play-state:paused" ></path>
<path fill="url(#lg-0.42710765832924924)" opacity="0.4" d="M 0 0 L 0 797.014 Q 160 726.593 320 697.761 T 640 507.077 T 960 202.652 T 1280 94.6944 T 1600 -87.6099 T 1920 -360.658 L 1920 0 Z" style="opacity:0.4;animation-play-state:paused" ></path></g></svg>